<svg width="307" height="32" viewBox="0 0 307 32" fill="none" xmlns="http://www.w3.org/2000/svg">
<path d="M6.21058 31H0.585582L10.8271 1.90909H17.3327L27.5884 31H21.9634L14.1935 7.875H13.9663L6.21058 31ZM6.39524 19.5938H21.7362V23.8267H6.39524V19.5938ZM31.1928 31V9.18182H36.1786V12.8182H36.4059C36.8036 11.5587 37.4854 10.5881 38.4513 9.90625C39.4267 9.21496 40.5394 8.86932 41.7894 8.86932C42.0735 8.86932 42.3907 8.88352 42.7411 8.91193C43.101 8.93087 43.3993 8.96401 43.636 9.01136V13.7415C43.4182 13.6657 43.0726 13.5994 42.5991 13.5426C42.1351 13.4763 41.6853 13.4432 41.2496 13.4432C40.3121 13.4432 39.4693 13.6468 38.7212 14.054C37.9826 14.4517 37.4002 15.0057 36.9741 15.7159C36.5479 16.4261 36.3349 17.2453 36.3349 18.1733V31H31.1928ZM55.6708 31.4261C53.4928 31.4261 51.6225 30.9479 50.06 29.9915C48.507 29.035 47.3091 27.714 46.4663 26.0284C45.6329 24.3333 45.2163 22.3826 45.2163 20.1761C45.2163 17.9602 45.6424 16.0047 46.4947 14.3097C47.3469 12.6051 48.5496 11.2794 50.1026 10.3324C51.6651 9.37595 53.5117 8.89773 55.6424 8.89773C57.4132 8.89773 58.9805 9.22443 60.3441 9.87784C61.7172 10.5218 62.811 11.4356 63.6254 12.6193C64.4397 13.7936 64.9038 15.1667 65.0174 16.7386H60.1026C59.9038 15.6875 59.4303 14.8116 58.6822 14.1108C57.9435 13.4006 56.954 13.0455 55.7134 13.0455C54.6623 13.0455 53.739 13.3295 52.9435 13.8977C52.1481 14.4564 51.5278 15.2614 51.0827 16.3125C50.6471 17.3636 50.4293 18.6231 50.4293 20.0909C50.4293 21.5777 50.6471 22.8561 51.0827 23.9261C51.5183 24.9867 52.1291 25.8059 52.9151 26.3835C53.7106 26.9517 54.6433 27.2358 55.7134 27.2358C56.471 27.2358 57.1481 27.0937 57.7447 26.8097C58.3507 26.5161 58.8574 26.0947 59.2646 25.5455C59.6718 24.9962 59.9511 24.3286 60.1026 23.5426H65.0174C64.8943 25.0862 64.4397 26.4545 63.6538 27.6477C62.8678 28.8314 61.7977 29.7595 60.4435 30.4318C59.0894 31.0947 57.4985 31.4261 55.6708 31.4261ZM80.1346 9.18182V13.1591H67.592V9.18182H80.1346ZM70.6886 3.95455H75.8306V24.4375C75.8306 25.1288 75.9348 25.6591 76.1431 26.0284C76.3609 26.3883 76.645 26.6345 76.9954 26.767C77.3458 26.8996 77.734 26.9659 78.1602 26.9659C78.4821 26.9659 78.7757 26.9422 79.0408 26.8949C79.3155 26.8475 79.5238 26.8049 79.6658 26.767L80.5323 30.7869C80.2577 30.8816 79.8647 30.9858 79.3533 31.0994C78.8514 31.2131 78.2359 31.2794 77.5067 31.2983C76.2189 31.3362 75.0588 31.142 74.0266 30.7159C72.9944 30.2803 72.1753 29.608 71.5692 28.6989C70.9727 27.7898 70.6791 26.6534 70.6886 25.2898V3.95455ZM84.435 31V9.18182H89.5771V31H84.435ZM87.0202 6.08523C86.2058 6.08523 85.5051 5.81534 84.918 5.27557C84.3308 4.72632 84.0373 4.06818 84.0373 3.30114C84.0373 2.52462 84.3308 1.86648 84.918 1.3267C85.5051 0.777461 86.2058 0.50284 87.0202 0.50284C87.8441 0.50284 88.5449 0.777461 89.1225 1.3267C89.7096 1.86648 90.0032 2.52462 90.0032 3.30114C90.0032 4.06818 89.7096 4.72632 89.1225 5.27557C88.5449 5.81534 87.8441 6.08523 87.0202 6.08523ZM104.382 31.4261C102.204 31.4261 100.333 30.9479 98.771 29.9915C97.2179 29.035 96.02 27.714 95.1772 26.0284C94.3439 24.3333 93.9272 22.3826 93.9272 20.1761C93.9272 17.9602 94.3533 16.0047 95.2056 14.3097C96.0579 12.6051 97.2605 11.2794 98.8136 10.3324C100.376 9.37595 102.223 8.89773 104.353 8.89773C106.124 8.89773 107.691 9.22443 109.055 9.87784C110.428 10.5218 111.522 11.4356 112.336 12.6193C113.151 13.7936 113.615 15.1667 113.728 16.7386H108.814C108.615 15.6875 108.141 14.8116 107.393 14.1108C106.654 13.4006 105.665 13.0455 104.424 13.0455C103.373 13.0455 102.45 13.3295 101.654 13.8977C100.859 14.4564 100.239 15.2614 99.7937 16.3125C99.3581 17.3636 99.1403 18.6231 99.1403 20.0909C99.1403 21.5777 99.3581 22.8561 99.7937 23.9261C100.229 24.9867 100.84 25.8059 101.626 26.3835C102.422 26.9517 103.354 27.2358 104.424 27.2358C105.182 27.2358 105.859 27.0937 106.456 26.8097C107.062 26.5161 107.568 26.0947 107.975 25.5455C108.383 24.9962 108.662 24.3286 108.814 23.5426H113.728C113.605 25.0862 113.151 26.4545 112.365 27.6477C111.579 28.8314 110.509 29.7595 109.154 30.4318C107.8 31.0947 106.209 31.4261 104.382 31.4261ZM133.37 1.90909V31H128.1V1.90909H133.37ZM143.991 18.2159V31H138.849V9.18182H143.764V12.8892H144.02C144.521 11.6676 145.322 10.697 146.42 9.97727C147.528 9.25758 148.896 8.89773 150.525 8.89773C152.031 8.89773 153.342 9.2197 154.46 9.86364C155.587 10.5076 156.458 11.4403 157.074 12.6619C157.699 13.8835 158.006 15.3655 157.997 17.108V31H152.855V17.9034C152.855 16.4451 152.476 15.304 151.718 14.4801C150.97 13.6562 149.933 13.2443 148.608 13.2443C147.708 13.2443 146.908 13.4432 146.207 13.8409C145.516 14.2292 144.971 14.7926 144.574 15.5312C144.185 16.2699 143.991 17.1648 143.991 18.2159ZM174.275 9.18182V13.1591H161.377V9.18182H174.275ZM164.602 31V7.12216C164.602 5.65435 164.905 4.43276 165.511 3.45739C166.127 2.48201 166.95 1.75284 167.983 1.26989C169.015 0.78693 170.161 0.545453 171.42 0.545453C172.31 0.545453 173.101 0.616476 173.792 0.758523C174.484 0.900568 174.995 1.02841 175.326 1.14205L174.304 5.11932C174.086 5.05303 173.811 4.98674 173.48 4.92045C173.148 4.8447 172.779 4.80682 172.372 4.80682C171.415 4.80682 170.738 5.03883 170.341 5.50284C169.952 5.95739 169.758 6.61079 169.758 7.46307V31H164.602ZM187.141 31.4261C184.953 31.4261 183.064 30.9716 181.473 30.0625C179.892 29.1439 178.675 27.8466 177.823 26.1705C176.971 24.4848 176.544 22.5009 176.544 20.2188C176.544 17.9744 176.971 16.0047 177.823 14.3097C178.685 12.6051 179.887 11.2794 181.431 10.3324C182.974 9.37595 184.788 8.89773 186.871 8.89773C188.216 8.89773 189.485 9.11553 190.678 9.55114C191.881 9.97727 192.941 10.6402 193.86 11.5398C194.788 12.4394 195.517 13.5852 196.047 14.9773C196.578 16.3598 196.843 18.0076 196.843 19.9205V21.4972H178.959V18.0312H191.914C191.904 17.0464 191.691 16.1705 191.275 15.4034C190.858 14.6269 190.275 14.0161 189.527 13.571C188.789 13.1259 187.927 12.9034 186.942 12.9034C185.891 12.9034 184.968 13.1591 184.172 13.6705C183.377 14.1723 182.757 14.8352 182.311 15.6591C181.876 16.4735 181.653 17.3684 181.644 18.3438V21.3693C181.644 22.6383 181.876 23.7273 182.34 24.6364C182.804 25.536 183.453 26.2273 184.286 26.7102C185.119 27.1837 186.095 27.4205 187.212 27.4205C187.96 27.4205 188.637 27.3163 189.243 27.108C189.849 26.8902 190.375 26.5729 190.82 26.1562C191.265 25.7396 191.601 25.2235 191.828 24.608L196.63 25.1477C196.327 26.4167 195.749 27.5246 194.897 28.4716C194.054 29.4091 192.974 30.1383 191.658 30.6591C190.342 31.1705 188.836 31.4261 187.141 31.4261ZM201.193 31V9.18182H206.179V12.8182H206.406C206.804 11.5587 207.485 10.5881 208.451 9.90625C209.427 9.21496 210.539 8.86932 211.789 8.86932C212.074 8.86932 212.391 8.88352 212.741 8.91193C213.101 8.93087 213.399 8.96401 213.636 9.01136V13.7415C213.418 13.6657 213.073 13.5994 212.599 13.5426C212.135 13.4763 211.685 13.4432 211.25 13.4432C210.312 13.4432 209.469 13.6468 208.721 14.054C207.983 14.4517 207.4 15.0057 206.974 15.7159C206.548 16.4261 206.335 17.2453 206.335 18.1733V31H201.193ZM225.813 31.4261C223.625 31.4261 221.736 30.9716 220.145 30.0625C218.564 29.1439 217.347 27.8466 216.495 26.1705C215.642 24.4848 215.216 22.5009 215.216 20.2188C215.216 17.9744 215.642 16.0047 216.495 14.3097C217.356 12.6051 218.559 11.2794 220.103 10.3324C221.646 9.37595 223.46 8.89773 225.543 8.89773C226.888 8.89773 228.157 9.11553 229.35 9.55114C230.552 9.97727 231.613 10.6402 232.532 11.5398C233.46 12.4394 234.189 13.5852 234.719 14.9773C235.249 16.3598 235.515 18.0076 235.515 19.9205V21.4972H217.631V18.0312H230.586C230.576 17.0464 230.363 16.1705 229.946 15.4034C229.53 14.6269 228.947 14.0161 228.199 13.571C227.461 13.1259 226.599 12.9034 225.614 12.9034C224.563 12.9034 223.64 13.1591 222.844 13.6705C222.049 14.1723 221.428 14.8352 220.983 15.6591C220.548 16.4735 220.325 17.3684 220.316 18.3438V21.3693C220.316 22.6383 220.548 23.7273 221.012 24.6364C221.476 25.536 222.124 26.2273 222.958 26.7102C223.791 27.1837 224.766 27.4205 225.884 27.4205C226.632 27.4205 227.309 27.3163 227.915 27.108C228.521 26.8902 229.047 26.5729 229.492 26.1562C229.937 25.7396 230.273 25.2235 230.5 24.608L235.301 25.1477C234.998 26.4167 234.421 27.5246 233.569 28.4716C232.726 29.4091 231.646 30.1383 230.33 30.6591C229.014 31.1705 227.508 31.4261 225.813 31.4261ZM245.007 18.2159V31H239.865V9.18182H244.779V12.8892H245.035C245.537 11.6676 246.337 10.697 247.436 9.97727C248.544 9.25758 249.912 8.89773 251.541 8.89773C253.047 8.89773 254.358 9.2197 255.475 9.86364C256.602 10.5076 257.474 11.4403 258.089 12.6619C258.714 13.8835 259.022 15.3655 259.012 17.108V31H253.87V17.9034C253.87 16.4451 253.492 15.304 252.734 14.4801C251.986 13.6562 250.949 13.2443 249.623 13.2443C248.724 13.2443 247.923 13.4432 247.223 13.8409C246.531 14.2292 245.987 14.7926 245.589 15.5312C245.201 16.2699 245.007 17.1648 245.007 18.2159ZM273.757 31.4261C271.579 31.4261 269.708 30.9479 268.146 29.9915C266.593 29.035 265.395 27.714 264.552 26.0284C263.719 24.3333 263.302 22.3826 263.302 20.1761C263.302 17.9602 263.728 16.0047 264.581 14.3097C265.433 12.6051 266.636 11.2794 268.189 10.3324C269.751 9.37595 271.598 8.89773 273.728 8.89773C275.499 8.89773 277.066 9.22443 278.43 9.87784C279.803 10.5218 280.897 11.4356 281.711 12.6193C282.526 13.7936 282.99 15.1667 283.103 16.7386H278.189C277.99 15.6875 277.516 14.8116 276.768 14.1108C276.029 13.4006 275.04 13.0455 273.799 13.0455C272.748 13.0455 271.825 13.3295 271.029 13.8977C270.234 14.4564 269.614 15.2614 269.169 16.3125C268.733 17.3636 268.515 18.6231 268.515 20.0909C268.515 21.5777 268.733 22.8561 269.169 23.9261C269.604 24.9867 270.215 25.8059 271.001 26.3835C271.797 26.9517 272.729 27.2358 273.799 27.2358C274.557 27.2358 275.234 27.0937 275.831 26.8097C276.437 26.5161 276.943 26.0947 277.35 25.5455C277.758 24.9962 278.037 24.3286 278.189 23.5426H283.103C282.98 25.0862 282.526 26.4545 281.74 27.6477C280.954 28.8314 279.884 29.7595 278.529 30.4318C277.175 31.0947 275.584 31.4261 273.757 31.4261ZM296.985 31.4261C294.797 31.4261 292.908 30.9716 291.317 30.0625C289.736 29.1439 288.519 27.8466 287.667 26.1705C286.814 24.4848 286.388 22.5009 286.388 20.2188C286.388 17.9744 286.814 16.0047 287.667 14.3097C288.528 12.6051 289.731 11.2794 291.275 10.3324C292.818 9.37595 294.632 8.89773 296.715 8.89773C298.06 8.89773 299.328 9.11553 300.522 9.55114C301.724 9.97727 302.785 10.6402 303.703 11.5398C304.632 12.4394 305.361 13.5852 305.891 14.9773C306.421 16.3598 306.686 18.0076 306.686 19.9205V21.4972H288.803V18.0312H301.757C301.748 17.0464 301.535 16.1705 301.118 15.4034C300.702 14.6269 300.119 14.0161 299.371 13.571C298.632 13.1259 297.771 12.9034 296.786 12.9034C295.735 12.9034 294.811 13.1591 294.016 13.6705C293.221 14.1723 292.6 14.8352 292.155 15.6591C291.72 16.4735 291.497 17.3684 291.488 18.3438V21.3693C291.488 22.6383 291.72 23.7273 292.184 24.6364C292.648 25.536 293.296 26.2273 294.13 26.7102C294.963 27.1837 295.938 27.4205 297.056 27.4205C297.804 27.4205 298.481 27.3163 299.087 27.108C299.693 26.8902 300.219 26.5729 300.664 26.1562C301.109 25.7396 301.445 25.2235 301.672 24.608L306.473 25.1477C306.17 26.4167 305.593 27.5246 304.74 28.4716C303.898 29.4091 302.818 30.1383 301.502 30.6591C300.185 31.1705 298.68 31.4261 296.985 31.4261Z" fill="#249EDC"/>
</svg>
